<?xml version="1.0" encoding="UTF-8"?>
<!DOCTYPE svg PUBLIC "-//W3C//DTD SVG 1.1//EN" "http://www.w3.org/Graphics/SVG/1.1/DTD/svg11.dtd">
<!-- Creator: CorelDRAW X8 -->
<svg xmlns="http://www.w3.org/2000/svg" xml:space="preserve" width="241px" height="121px" version="1.1" style="shape-rendering:geometricPrecision; text-rendering:geometricPrecision; image-rendering:optimizeQuality; fill-rule:evenodd; clip-rule:evenodd"
viewBox="0 0 15 8"
 xmlns:xlink="http://www.w3.org/1999/xlink">
 <defs>
  <style type="text/css">
   <![CDATA[
    .str0 {stroke:white;stroke-width:0.317469}
    .fil0 {fill:none}
    .fil1 {fill:white;fill-rule:nonzero}
   ]]>
  </style>
 </defs>
 <g id="Capa_x0020_1">
  <metadata id="CorelCorpID_0Corel-Layer"/>
  <path class="fil0 str0" d="M1 0l14 0c0,0 0,0 0,1l0 6c0,0 0,1 0,1l-14 0c-1,0 -1,-1 -1,-1l0 -6c0,-1 0,-1 1,-1z"/>
  <path class="fil1" d="M5 2l2 0 0 0 -2 0 0 1 1 0 0 1 -1 0 0 1 2 0 0 1 -2 0 0 -4zm3 4c-1,0 -1,0 -1,0 0,-1 0,-1 0,-1l0 -2c0,0 0,0 0,0 0,0 0,0 1,0 0,0 0,0 0,0 0,0 0,0 0,0l0 1 0 0 0 -1c0,0 0,0 0,0 0,0 -1,0 -1,0l0 2c0,0 1,0 1,0 0,0 0,0 0,0l0 0 0 0 0 0c0,0 0,0 0,1 0,0 0,0 0,0zm2 0c-1,0 -1,0 -1,0 0,-1 0,-1 0,-1l0 0 0 0 0 0c0,0 1,0 1,0 0,0 0,0 0,0 0,0 0,0 0,0 0,0 0,0 0,0 0,0 0,-1 0,-1 -1,0 -1,0 -1,0 0,0 0,0 0,-1 0,0 0,0 0,0 0,0 0,0 1,0 0,0 0,0 0,0 0,0 0,0 0,0l0 0 0 0 0 0c0,0 0,0 0,0 0,0 0,0 0,0 0,0 -1,0 -1,0 0,0 1,1 1,1 0,0 0,0 0,0 0,0 0,0 0,0 0,1 0,1 0,1 0,0 0,0 0,1 0,0 0,0 0,0z"/>
 </g>
</svg>
