<?xml version="1.0" encoding="UTF-8"?>
<!DOCTYPE svg PUBLIC "-//W3C//DTD SVG 1.1//EN" "http://www.w3.org/Graphics/SVG/1.1/DTD/svg11.dtd">
<!-- Creator: CorelDRAW X8 -->
<svg xmlns="http://www.w3.org/2000/svg" xml:space="preserve" width="601px" height="546px" version="1.1" style="shape-rendering:geometricPrecision; text-rendering:geometricPrecision; image-rendering:optimizeQuality; fill-rule:evenodd; clip-rule:evenodd"
viewBox="0 0 582 528"
 xmlns:xlink="http://www.w3.org/1999/xlink">
 <defs>
  <style type="text/css">
   <![CDATA[
    .fil0 {fill:white}
   ]]>
  </style>
 </defs>
 <g id="Capa_x0020_1">
  <metadata id="CorelCorpID_0Corel-Layer"/>
  <path class="fil0" d="M137 51l-86 0c-9,0 -17,8 -17,17 0,10 8,17 17,17l86 0c10,0 17,-7 17,-17 0,-9 -7,-17 -17,-17zm375 0c0,-28 -23,-51 -51,-51 -28,0 -51,23 -51,51 0,28 23,51 51,51 28,0 51,-23 51,-51zm-286 270c-9,-9 -15,-19 -18,-31l-180 180c-13,13 -13,35 0,48 13,14 35,14 48,0l174 -173 -24 -24zm92 -290c-13,-9 -31,-7 -43,5l-93 93c-14,14 -14,35 0,48 13,14 34,14 48,0l74 -74 25 18 33 -33c5,-5 12,-10 19,-13l-63 -44zm230 173l-104 0 0 -68c0,-30 -36,-45 -58,-24l-136 137c-14,13 -14,34 0,48l78 78 -95 95c-14,13 -14,35 0,48 13,14 35,14 48,0l119 -119c13,-13 13,-35 0,-48l-78 -78 54 -54 0 20c0,18 15,34 34,34l138 0c18,0 34,-16 34,-34 0,-19 -16,-35 -34,-35zm-445 -85l-86 0c-9,0 -17,8 -17,17 0,10 8,17 17,17l86 0c10,0 17,-7 17,-17 0,-9 -7,-17 -17,-17zm34 68l-86 0c-9,0 -17,8 -17,17 0,10 8,18 17,18l86 0c10,0 17,-8 17,-18 0,-9 -7,-17 -17,-17z"/>
 </g>
</svg>
