<?xml version="1.0" encoding="UTF-8"?>
<!DOCTYPE svg PUBLIC "-//W3C//DTD SVG 1.1//EN" "http://www.w3.org/Graphics/SVG/1.1/DTD/svg11.dtd">
<!-- Creator: CorelDRAW X8 -->
<svg xmlns="http://www.w3.org/2000/svg" xml:space="preserve" width="538px" height="538px" version="1.1" style="shape-rendering:geometricPrecision; text-rendering:geometricPrecision; image-rendering:optimizeQuality; fill-rule:evenodd; clip-rule:evenodd"
viewBox="0 0 106 106"
 xmlns:xlink="http://www.w3.org/1999/xlink">
 <defs>
  <style type="text/css">
   <![CDATA[
    .fil0 {fill:white}
   ]]>
  </style>
 </defs>
 <g id="Capa_x0020_1">
  <metadata id="CorelCorpID_0Corel-Layer"/>
  <path class="fil0" d="M105 102c-5,-5 -6,-14 -8,-25 -2,-15 -4,-34 -17,-48l7 -7 10 0c1,0 2,-1 2,-1l6 -18c1,-1 1,-2 0,-2 -1,-1 -2,-1 -2,-1l-18 7c-1,0 -1,1 -1,2l0 10 -7 7c-15,-13 -33,-16 -48,-18 -11,-1 -20,-2 -25,-7 -1,-1 -2,-1 -3,0 -1,0 -1,1 -1,1 0,1 0,1 0,1l30 69 -2 3 -13 0c0,0 -1,0 -1,0l-13 14c-1,0 -1,1 -1,2 1,1 1,1 2,1l11 0 0 11c0,1 1,2 2,2 0,1 0,1 0,1 1,0 2,-1 2,-1l13 -13c1,-1 1,-1 1,-2l0 -12 3 -3c9,4 69,30 69,30 0,1 0,1 0,1 1,0 2,-1 2,-1 0,0 1,-1 1,-2 0,0 -1,-1 -1,-1zm-81 -10l-4 4 0 -10 -10 0 4 -5 8 0c1,0 2,1 2,3l0 8zm-16 -83c6,5 14,7 22,10 12,5 25,9 35,18l-31 32 -26 -60zm29 63l31 -31c10,10 14,22 18,34 3,8 6,16 10,23l-59 -26z"/>
 </g>
</svg>
